<?xml version="1.0" encoding="utf-8"?>
<!-- Generator: Adobe Illustrator 21.1.0, SVG Export Plug-In . SVG Version: 6.00 Build 0)  -->
<svg version="1.1" id="Calque_1" xmlns="http://www.w3.org/2000/svg" xmlns:xlink="http://www.w3.org/1999/xlink" x="0px" y="0px"
	 viewBox="0 0 519.2 174.2" style="enable-background:new 0 0 519.2 174.2;" xml:space="preserve">
<style type="text/css">
	.st0{fill:#FFFFFF;}
</style>
<g id="XMLID_88_">
</g>
<g id="XMLID_89_">
</g>
<g id="XMLID_90_">
</g>
<g id="XMLID_91_">
</g>
<g id="XMLID_92_">
</g>
<g id="XMLID_93_">
</g>
<g id="XMLID_94_">
</g>
<g id="XMLID_95_">
</g>
<g id="XMLID_96_">
</g>
<g id="XMLID_97_">
</g>
<g id="XMLID_98_">
</g>
<g id="XMLID_99_">
</g>
<g id="XMLID_100_">
</g>
<g id="XMLID_101_">
</g>
<g id="XMLID_102_">
</g>
<path class="st0" d="M193.5,119.8h11.2l-1.9-8.7V59.4h-10.7V83c-3.2-3.7-7.7-5.9-12.9-5.9c-10.7,0-19,8.9-19,21.8
	c0,13,8.3,21.8,19,21.8c5.3,0,9.9-2.3,13.1-6.2L193.5,119.8L193.5,119.8z M405.1,88.7c2.2,0,4.2,0.6,6,1.9l5.1-11.4
	c-2.4-1.5-5.1-2.1-7.8-2.1c-4.8,0-8.9,2.2-11.4,6.3l-1.1-5.3h-11l1.8,8.2v33.6h10.7V93.2C398.8,90.4,401.5,88.7,405.1,88.7
	L405.1,88.7L405.1,88.7L405.1,88.7z M436.4,109.5c-6.2,0-10.8-4.1-10.8-10.5c0-6.5,4.6-10.5,10.8-10.5c6.3,0,10.8,4,10.8,10.5
	C447.2,105.3,442.7,109.5,436.4,109.5L436.4,109.5z M170.6,98.9c0-6.5,4.6-10.5,10.8-10.5c6.3,0,10.8,4,10.8,10.5
	c0,6.4-4.5,10.5-10.8,10.5C175.2,109.5,170.6,105.3,170.6,98.9z M483.9,109.5c-6.2,0-10.8-4.1-10.8-10.5c0-6.5,4.6-10.5,10.8-10.5
	c6.3,0,10.8,4,10.8,10.5C494.6,105.3,490.1,109.5,483.9,109.5z M230.7,87.8c5.5,0,9.1,2.6,10.3,7.4h-20.6
	C221.5,90.3,225.2,87.8,230.7,87.8L230.7,87.8z M358.6,87.8c5.5,0,9.1,2.6,10.3,7.4h-20.6C349.6,90.3,353.2,87.8,358.6,87.8
	L358.6,87.8z M306.4,119.8h17.2l11.2-41.9h-11.7l-8.1,34L306.8,78h-11.5L306.4,119.8L306.4,119.8z M278.9,119.8h10.7V77.9h-10.7
	V119.8z M232.3,120.6c6,0,11.8-1.7,16.7-4.8l-4.1-9.2c-3.8,2.1-8.2,3.2-12.5,3.2c-5.6,0-9.5-2.2-11.3-6.3h30.2
	c0.3-1.6,0.5-3,0.5-4.9c0-13-9-21.6-20.9-21.6c-12.1,0-20.9,8.8-20.9,21.8C209.9,112.1,218.7,120.6,232.3,120.6L232.3,120.6z
	 M505,98.9c0-13-9-21.8-21.1-21.8c-12.2,0-21.1,8.9-21.1,21.8s9,21.8,21.1,21.8S505,111.9,505,98.9L505,98.9z M360.1,120.7
	c6,0,11.8-1.6,16.7-4.8l-4.1-9.2c-3.8,2.1-8.2,3.2-12.5,3.2c-5.6,0-9.5-2.2-11.3-6.3h30.2c0.3-1.6,0.5-3,0.5-4.9
	c0-13-9-21.6-20.9-21.6c-12.1,0-20.9,8.8-20.9,21.8C337.8,112.3,346.5,120.7,360.1,120.7L360.1,120.7L360.1,120.7z M436.4,120.7
	c12.2,0,21.1-8.9,21.1-21.8s-9-21.8-21.1-21.8c-12.2,0-21.1,8.9-21.1,21.8S424.2,120.7,436.4,120.7L436.4,120.7z M258.6,119.8h10.7
	V59.4h-10.7V119.8L258.6,119.8z M284.3,72.2c3.7,0,6.7-3,6.7-6.8s-2.9-6.8-6.7-6.8c-3.8,0-6.8,3-6.8,6.8S280.4,72.2,284.3,72.2
	L284.3,72.2z M100.4,21.3l-6.1,58L83.9,30.4l-32.8,6.9l10.3,48.9l-47.2,10l8.4,39l83.1,17.7l19-42.5l9-85.6L100.4,21.3L100.4,21.3
	L100.4,21.3z M74.1,105.5c-1.7,1.6-3.9,1.4-6.4,0.6c-2.4-0.8-3.4-3.6-2.6-7.2c0.7-2.6,3.8-3,5.5-3c0.6,0,1.2,0.1,1.8,0.4
	c1.1,0.5,3,1.6,3.4,3.2C76.4,101.9,75.8,103.9,74.1,105.5L74.1,105.5L74.1,105.5L74.1,105.5z M98.2,108.1c-1.3,2.2-4.5,2.5-7.8,0.9
	c-2.2-1.1-2.2-3.7-1.9-5.4c0.1-0.9,0.5-1.8,1.1-2.5c0.8-1,2.1-2.3,3.5-2.3c2.5-0.1,4.5,1,5.7,3C100,103.8,99.4,106,98.2,108.1
	L98.2,108.1L98.2,108.1z"/>
</svg>
