<?xml version="1.0" encoding="utf-8"?>
<!-- Generator: Adobe Illustrator 22.0.1, SVG Export Plug-In . SVG Version: 6.00 Build 0)  -->
<svg version="1.1" id="Capa_1" xmlns="http://www.w3.org/2000/svg" xmlns:xlink="http://www.w3.org/1999/xlink" x="0px" y="0px"
	 viewBox="0 0 512 512" style="enable-background:new 0 0 512 512;" xml:space="preserve">
<style type="text/css">
	.st0{fill:#FFFFFF;}
</style>
<g>
	<g id="favorite">
		<g>
			<path class="st0" d="M371.2,70.5c51.8,0,90.8,39,90.8,90.8c0,33.5-15,66.7-48.8,107.8c-35,42.5-86.1,88.7-154.5,149.2l-1.1,1
				l-1.1,1.1l-0.4,0.4l-0.4-0.4l-1.1-1.1l-1.1-1c-68.4-60.5-119.6-106.7-154.5-149.2C65,228,50,194.8,50,161.3
				c0-51.8,39-90.8,90.8-90.8c28.7,0,58.2,13.8,77,36.1l38.2,45.1l38.2-45.1C313,84.3,342.5,70.5,371.2,70.5 M371.2,20.5
				c-43.5,0-87,20.5-115.2,53.8C227.8,41,184.3,20.5,140.8,20.5C61.4,20.5,0,81.9,0,161.3c0,97.3,87,176.6,220.2,294.4l35.8,35.8
				l35.8-35.8C425,337.9,512,258.6,512,161.3C512,81.9,450.6,20.5,371.2,20.5L371.2,20.5z"/>
		</g>
	</g>
</g>
</svg>
