<?xml version="1.0" encoding="utf-8"?>
<!-- Generator: Adobe Illustrator 22.0.1, SVG Export Plug-In . SVG Version: 6.00 Build 0)  -->
<svg version="1.1" id="Layer_1" xmlns="http://www.w3.org/2000/svg" xmlns:xlink="http://www.w3.org/1999/xlink" x="0px" y="0px"
	 viewBox="0 0 512 512" style="enable-background:new 0 0 512 512;" xml:space="preserve">
<style type="text/css">
	.st0{fill:#FFFFFF;}
</style>
<g>
	<g>
		<path class="st0" d="M256,119.7l31.2,73.8l11.7,27.8l30,2.6l79.8,6.9l-60.5,52.5l-22.8,19.7l6.8,29.4l18.1,78L281.8,369L256,353.4
			L230.2,369l-68.6,41.4l18.1-78l6.8-29.4l-22.8-19.7l-60.6-52.5l79.8-6.9l30-2.6l11.7-27.8L256,119.7 M256,11.9
			c-4.9,0-9.8,2.7-12.1,8L178.8,174L12,188.4c-11.6,1-16.3,15.4-7.5,23L131,321L93.1,484c-2,8.8,4.9,16.1,12.8,16.1
			c2.2,0,4.6-0.6,6.8-1.9L256,411.8l143.3,86.4c2.2,1.3,4.5,1.9,6.8,1.9c7.9,0,14.8-7.3,12.8-16.2L381,321l126.5-109.6
			c8.8-7.6,4.1-22-7.5-23l-166.7-14.3L268.1,19.9h0C265.8,14.6,260.9,11.9,256,11.9L256,11.9z"/>
	</g>
</g>
</svg>
